<svg width="209" height="48" viewBox="0 0 209 48" fill="none" xmlns="http://www.w3.org/2000/svg">
<path d="M38 47.0021C38 47.8123 37.0856 48.2837 36.4274 47.8127L19.5781 35.7576C19.2323 35.5102 18.7677 35.5102 18.4219 35.7576L1.57262 47.8127C0.914358 48.2837 0 47.8123 0 47.0021V5.43754C0 3.99541 0.571937 2.61235 1.58999 1.59262C2.60805 0.572882 3.98882 0 5.42857 0H32.5714C34.0112 0 35.3919 0.572882 36.41 1.59262C37.4281 2.61235 38 3.99541 38 5.43754V47.0021Z" fill="#FF0032"/>
<path d="M13.2814 12.1019C13.2814 11.3129 14.1535 10.837 14.8152 11.2649L25.6618 18.2774C26.2687 18.6698 26.2687 19.559 25.6618 19.9514L14.8152 26.9639C14.1535 27.3918 13.2814 26.9159 13.2814 26.1269V12.1019Z" fill="white"/>
<path d="M59.096 33.384C57.528 33.384 56.128 33.032 54.896 32.328C53.68 31.624 52.72 30.616 52.016 29.304C51.328 27.976 50.984 26.376 50.984 24.504C50.984 22.696 51.312 21.128 51.968 19.8C52.64 18.456 53.592 17.416 54.824 16.68C56.056 15.944 57.504 15.576 59.168 15.576C61.456 15.576 63.232 16.136 64.496 17.256C65.776 18.376 66.6 19.984 66.968 22.08L62.624 22.248C62.448 21.224 62.064 20.424 61.472 19.848C60.88 19.272 60.112 18.984 59.168 18.984C58.336 18.984 57.624 19.216 57.032 19.68C56.456 20.144 56.016 20.792 55.712 21.624C55.424 22.456 55.28 23.416 55.28 24.504C55.28 25.624 55.432 26.592 55.736 27.408C56.056 28.224 56.504 28.856 57.08 29.304C57.656 29.752 58.344 29.976 59.144 29.976C60.184 29.976 60.984 29.672 61.544 29.064C62.12 28.44 62.488 27.584 62.648 26.496L67.016 26.664C66.776 28.088 66.32 29.304 65.648 30.312C64.976 31.304 64.096 32.064 63.008 32.592C61.92 33.12 60.616 33.384 59.096 33.384Z" fill="black"/>
<path d="M72.6901 33C71.5381 33 70.6421 32.712 70.0021 32.136C69.3621 31.56 69.0421 30.624 69.0421 29.328V15.96H73.1701V28.872C73.1701 29.288 73.2661 29.584 73.4581 29.76C73.6501 29.936 73.9221 30.024 74.2741 30.024H75.0661V33H72.6901Z" fill="black"/>
<path d="M76.7296 33V20.088H80.8576V33H76.7296ZM76.6576 18.648V15.576H80.9296V18.648H76.6576Z" fill="black"/>
<path d="M83.9249 36.6V20.088H87.9329L88.0049 22.8L87.6929 22.68C88.0129 21.752 88.5249 21.04 89.2289 20.544C89.9489 20.048 90.7969 19.8 91.7729 19.8C92.9409 19.8 93.9249 20.096 94.7249 20.688C95.5249 21.264 96.1329 22.064 96.5489 23.088C96.9649 24.096 97.1729 25.248 97.1729 26.544C97.1729 27.824 96.9569 28.976 96.5249 30C96.1089 31.024 95.4929 31.832 94.6769 32.424C93.8769 33 92.8929 33.288 91.7249 33.288C91.1009 33.288 90.5169 33.176 89.9729 32.952C89.4449 32.712 88.9809 32.384 88.5809 31.968C88.1969 31.536 87.9169 31.032 87.7409 30.456L88.0529 30.312V36.6H83.9249ZM90.4769 30.24C91.2289 30.24 91.8209 29.912 92.2529 29.256C92.7009 28.584 92.9249 27.68 92.9249 26.544C92.9249 25.408 92.7009 24.512 92.2529 23.856C91.8209 23.184 91.2289 22.848 90.4769 22.848C89.9649 22.848 89.5249 22.992 89.1569 23.28C88.8049 23.552 88.5329 23.96 88.3409 24.504C88.1489 25.048 88.0529 25.728 88.0529 26.544C88.0529 27.36 88.1489 28.04 88.3409 28.584C88.5329 29.128 88.8049 29.544 89.1569 29.832C89.5249 30.104 89.9649 30.24 90.4769 30.24Z" fill="black"/>
<path d="M99.3976 33V15.96H104.918L108.902 27.576L112.862 15.96H118.382V33H114.206V22.68L110.486 32.952H107.27L103.574 22.68V33H99.3976Z" fill="black"/>
<path d="M122.485 36.6V33.624H124.261C124.661 33.624 124.957 33.56 125.149 33.432C125.341 33.32 125.493 33.112 125.605 32.808L125.821 32.232H124.741L120.253 20.088H124.429L127.093 28.344L129.589 20.088H133.741L128.869 34.08C128.549 34.992 128.109 35.64 127.549 36.024C126.989 36.408 126.205 36.6 125.197 36.6H122.485Z" fill="black"/>
<path d="M142.979 33.384C141.411 33.384 140.011 33.032 138.779 32.328C137.563 31.624 136.603 30.616 135.899 29.304C135.211 27.976 134.867 26.376 134.867 24.504C134.867 22.696 135.195 21.128 135.851 19.8C136.523 18.456 137.475 17.416 138.707 16.68C139.939 15.944 141.387 15.576 143.051 15.576C145.339 15.576 147.115 16.136 148.379 17.256C149.659 18.376 150.483 19.984 150.851 22.08L146.507 22.248C146.331 21.224 145.947 20.424 145.355 19.848C144.763 19.272 143.995 18.984 143.051 18.984C142.219 18.984 141.507 19.216 140.915 19.68C140.339 20.144 139.899 20.792 139.595 21.624C139.307 22.456 139.163 23.416 139.163 24.504C139.163 25.624 139.315 26.592 139.619 27.408C139.939 28.224 140.387 28.856 140.963 29.304C141.539 29.752 142.227 29.976 143.027 29.976C144.067 29.976 144.867 29.672 145.427 29.064C146.003 28.44 146.371 27.584 146.531 26.496L150.899 26.664C150.659 28.088 150.203 29.304 149.531 30.312C148.859 31.304 147.979 32.064 146.891 32.592C145.803 33.12 144.499 33.384 142.979 33.384Z" fill="black"/>
<path d="M159.139 33.288C157.779 33.288 156.587 33.008 155.563 32.448C154.555 31.888 153.763 31.104 153.187 30.096C152.627 29.088 152.347 27.904 152.347 26.544C152.347 25.184 152.627 24 153.187 22.992C153.763 21.984 154.555 21.2 155.563 20.64C156.587 20.08 157.779 19.8 159.139 19.8C160.499 19.8 161.683 20.08 162.691 20.64C163.699 21.2 164.483 21.984 165.043 22.992C165.619 24 165.907 25.184 165.907 26.544C165.907 27.904 165.619 29.088 165.043 30.096C164.483 31.104 163.699 31.888 162.691 32.448C161.683 33.008 160.499 33.288 159.139 33.288ZM159.139 30.24C159.939 30.24 160.555 29.92 160.987 29.28C161.435 28.64 161.659 27.728 161.659 26.544C161.659 25.376 161.435 24.472 160.987 23.832C160.555 23.176 159.939 22.848 159.139 22.848C158.323 22.848 157.691 23.176 157.243 23.832C156.811 24.472 156.595 25.376 156.595 26.544C156.595 27.728 156.811 28.64 157.243 29.28C157.691 29.92 158.323 30.24 159.139 30.24Z" fill="black"/>
<path d="M172.196 33.288C170.852 33.288 169.804 32.864 169.052 32.016C168.316 31.152 167.948 29.952 167.948 28.416V20.088H172.076V27.456C172.076 28.368 172.204 29.032 172.46 29.448C172.732 29.864 173.156 30.072 173.732 30.072C174.372 30.072 174.86 29.848 175.196 29.4C175.548 28.936 175.724 28.216 175.724 27.24V20.088H179.852V33H176.132L176.012 29.112L176.492 29.184C176.332 30.56 175.892 31.592 175.172 32.28C174.452 32.952 173.46 33.288 172.196 33.288Z" fill="black"/>
<path d="M188.334 33.288C186.942 33.288 185.782 33.104 184.854 32.736C183.926 32.352 183.214 31.832 182.718 31.176C182.238 30.52 181.966 29.776 181.902 28.944L186.078 28.8C186.174 29.376 186.406 29.808 186.774 30.096C187.142 30.384 187.67 30.528 188.358 30.528C188.918 30.528 189.35 30.44 189.654 30.264C189.958 30.072 190.11 29.792 190.11 29.424C190.11 29.168 190.046 28.96 189.918 28.8C189.806 28.64 189.574 28.496 189.222 28.368C188.886 28.24 188.382 28.12 187.71 28.008C186.302 27.784 185.198 27.512 184.398 27.192C183.598 26.856 183.03 26.432 182.694 25.92C182.374 25.408 182.214 24.768 182.214 24C182.214 22.736 182.71 21.72 183.702 20.952C184.71 20.184 186.23 19.8 188.262 19.8C189.526 19.8 190.582 19.992 191.43 20.376C192.294 20.76 192.958 21.296 193.422 21.984C193.902 22.656 194.198 23.44 194.31 24.336L190.206 24.48C190.158 24.08 190.046 23.736 189.87 23.448C189.694 23.16 189.47 22.944 189.198 22.8C188.926 22.64 188.598 22.56 188.214 22.56C187.67 22.56 187.238 22.68 186.918 22.92C186.614 23.144 186.462 23.456 186.462 23.856C186.462 24.128 186.526 24.36 186.654 24.552C186.798 24.728 187.03 24.872 187.35 24.984C187.67 25.096 188.102 25.192 188.646 25.272C190.038 25.448 191.15 25.712 191.982 26.064C192.814 26.4 193.414 26.84 193.782 27.384C194.166 27.912 194.358 28.56 194.358 29.328C194.358 30.176 194.11 30.896 193.614 31.488C193.134 32.08 192.446 32.528 191.55 32.832C190.654 33.136 189.582 33.288 188.334 33.288Z" fill="black"/>
<path d="M202.473 33.288C201.129 33.288 199.953 33.008 198.945 32.448C197.937 31.888 197.154 31.104 196.594 30.096C196.034 29.088 195.753 27.904 195.753 26.544C195.753 25.184 196.034 24.008 196.594 23.016C197.154 22.008 197.929 21.224 198.921 20.664C199.929 20.088 201.105 19.8 202.449 19.8C203.793 19.8 204.954 20.088 205.93 20.664C206.922 21.224 207.682 22.032 208.21 23.088C208.738 24.144 209.001 25.4 209.001 26.856V27.624H200.025C200.073 28.52 200.322 29.192 200.77 29.64C201.234 30.072 201.826 30.288 202.546 30.288C203.09 30.288 203.545 30.184 203.913 29.976C204.281 29.752 204.546 29.392 204.706 28.896L208.833 29.136C208.481 30.48 207.738 31.512 206.602 32.232C205.466 32.936 204.089 33.288 202.473 33.288ZM200.025 25.272H204.826C204.794 24.424 204.562 23.792 204.13 23.376C203.698 22.944 203.137 22.728 202.449 22.728C201.793 22.728 201.242 22.952 200.794 23.4C200.362 23.848 200.105 24.472 200.025 25.272Z" fill="black"/>
</svg>
