<svg width="154" height="194" viewBox="0 0 154 194" fill="none" xmlns="http://www.w3.org/2000/svg">
<path d="M153.417 189.477C153.417 192.731 149.739 194.623 147.092 192.732L79.325 144.327C77.9342 143.334 76.0658 143.334 74.675 144.327L6.90829 192.732C4.26081 194.623 0.583328 192.731 0.583328 189.477V22.5833C0.583328 16.7928 2.88362 11.2394 6.97816 7.14483C11.0727 3.05029 16.6261 0.75 22.4167 0.75H131.583C137.374 0.75 142.927 3.05029 147.022 7.14483C151.116 11.2394 153.417 16.7928 153.417 22.5833V189.477Z" fill="#FF0032"/>
<path d="M54 49.3427C54 46.1747 57.5075 44.2639 60.1692 45.9819L103.793 74.1393C106.234 75.7149 106.234 79.2851 103.793 80.8607L60.1692 109.018C57.5075 110.736 54 108.825 54 105.657V49.3427Z" fill="white"/>
</svg>
